<svg width="129" height="72" viewBox="0 0 129 72" fill="none" xmlns="http://www.w3.org/2000/svg">
<path d="M10.79 58.0379C10.6408 57.7961 10.4415 57.62 10.1921 57.5094C9.94268 57.3989 9.68297 57.3436 9.41297 57.3436C9.21368 57.3436 9.01825 57.368 8.8254 57.4181C8.63254 57.4683 8.46025 57.5429 8.30725 57.6419C8.15425 57.7421 8.03083 57.8733 7.93825 58.0366C7.84568 58.1999 7.7994 58.3927 7.7994 58.6126C7.7994 58.7836 7.8264 58.934 7.87911 59.0664C7.93183 59.1989 8.01925 59.3171 8.14011 59.4239C8.26097 59.5306 8.42425 59.6309 8.63125 59.7234C8.83825 59.816 9.09025 59.9086 9.38983 60.0011C9.68168 60.0937 9.96454 60.1927 10.2384 60.2994C10.5123 60.4061 10.754 60.5411 10.9648 60.7057C11.1744 60.869 11.3415 61.0734 11.4663 61.3203C11.591 61.5659 11.6527 61.8731 11.6527 62.2434C11.6527 62.6137 11.5781 62.948 11.429 63.2257C11.2798 63.5034 11.0818 63.7323 10.8363 63.9149C10.5907 64.0961 10.3078 64.2311 9.98768 64.3211C9.66754 64.4099 9.33711 64.4549 8.99511 64.4549C8.77397 64.4549 8.55411 64.4356 8.33297 64.3957C8.11183 64.3571 7.90097 64.2954 7.69783 64.2144C7.49468 64.1321 7.3044 64.0254 7.12697 63.8943C6.94954 63.7619 6.79654 63.5999 6.66797 63.4083L7.43683 62.7783C7.60011 63.056 7.82768 63.2656 8.11954 63.4083C8.4114 63.551 8.72125 63.6217 9.04911 63.6217C9.24068 63.6217 9.43483 63.5934 9.63154 63.5369C9.82697 63.4803 10.0031 63.3967 10.16 63.2861C10.3168 63.1756 10.4441 63.0393 10.5444 62.8747C10.6434 62.7114 10.6935 62.5224 10.6935 62.309C10.6935 62.0737 10.655 61.8834 10.5765 61.7381C10.4981 61.5929 10.3773 61.4656 10.214 61.3589C10.0507 61.2521 9.84368 61.1557 9.59426 61.0709C9.34483 60.986 9.05297 60.8857 8.71868 60.7713C8.44868 60.6864 8.19925 60.5887 7.97168 60.4781C7.74411 60.3676 7.54611 60.2326 7.37897 60.0719C7.21183 59.9111 7.0794 59.7196 6.98425 59.4959C6.88783 59.2721 6.84025 59.0034 6.84025 58.6897C6.84025 58.3271 6.91097 58.0096 7.05368 57.7396C7.1964 57.4696 7.38797 57.2433 7.62968 57.062C7.8714 56.8807 8.14526 56.7431 8.45126 56.6506C8.75726 56.558 9.0774 56.5117 9.41168 56.5117C9.83854 56.5117 10.2281 56.5773 10.5804 56.7097C10.9327 56.8421 11.2477 57.071 11.5254 57.3989L10.7887 58.0391L10.79 58.0379Z" fill="#006DAD"/>
<path d="M12.6992 61.765C12.6992 61.3742 12.7674 61.018 12.9024 60.6979C13.0374 60.3777 13.2225 60.1026 13.4578 59.8712C13.6931 59.6397 13.9734 59.4597 14.3012 59.3324C14.6291 59.2039 14.9839 59.1409 15.3684 59.1409C15.7528 59.1409 16.1089 59.2052 16.4355 59.3324C16.7634 59.461 17.0436 59.6397 17.2789 59.8712C17.5142 60.1026 17.6994 60.3777 17.8344 60.6979C17.9694 61.018 18.0375 61.3742 18.0375 61.765C18.0375 62.1559 17.9694 62.512 17.8344 62.8334C17.6994 63.1536 17.5142 63.43 17.2789 63.6602C17.0436 63.8916 16.7634 64.0716 16.4355 64.1989C16.1076 64.3274 15.7528 64.3904 15.3684 64.3904C14.9839 64.3904 14.6278 64.3262 14.3012 64.1989C13.9734 64.0703 13.6931 63.8916 13.4578 63.6602C13.2225 63.4287 13.0374 63.1536 12.9024 62.8334C12.7674 62.5133 12.6992 62.1572 12.6992 61.765ZM13.5966 61.765C13.5966 62.0286 13.6378 62.2716 13.7201 62.4966C13.8024 62.7203 13.9206 62.917 14.0775 63.0842C14.2344 63.2513 14.4208 63.3837 14.6381 63.4789C14.8554 63.5753 15.0984 63.6229 15.3696 63.6229C15.6409 63.6229 15.8839 63.5753 16.1012 63.4789C16.3185 63.3824 16.5049 63.2513 16.6618 63.0842C16.8186 62.917 16.9369 62.7216 17.0192 62.4966C17.1015 62.2729 17.1426 62.0286 17.1426 61.765C17.1426 61.5014 17.1015 61.2584 17.0192 61.0334C16.9369 60.8097 16.8186 60.613 16.6618 60.4459C16.5049 60.2787 16.3185 60.1476 16.1012 60.0512C15.8839 59.9547 15.6396 59.9072 15.3696 59.9072C15.0996 59.9072 14.8554 59.9547 14.6381 60.0512C14.4208 60.1476 14.2344 60.2787 14.0775 60.4459C13.9206 60.613 13.8011 60.8084 13.7201 61.0334C13.6378 61.2572 13.5966 61.5014 13.5966 61.765Z" fill="#006DAD"/>
<path d="M22.8847 60.5159C22.7073 60.3024 22.5144 60.1482 22.3087 60.0517C22.1017 59.9553 21.8741 59.9077 21.6247 59.9077C21.347 59.9077 21.1014 59.9553 20.888 60.0517C20.6745 60.1482 20.4984 60.2819 20.3595 60.4516C20.2207 60.6213 20.1153 60.8193 20.0445 61.0443C19.9738 61.268 19.9378 61.5084 19.9378 61.7643C19.9378 62.0202 19.979 62.2606 20.0613 62.4856C20.1435 62.7093 20.2567 62.9073 20.4033 63.0783C20.5485 63.2493 20.7247 63.383 20.9317 63.4782C21.1374 63.5746 21.3688 63.6222 21.626 63.6222C22.1737 63.6222 22.598 63.4164 22.8963 63.0024L23.516 63.59C23.2743 63.8677 22.9888 64.0709 22.6623 64.1982C22.3344 64.3267 21.9898 64.3897 21.626 64.3897C21.2415 64.3897 20.8893 64.3254 20.5691 64.1982C20.249 64.0696 19.9764 63.8883 19.7527 63.653C19.529 63.4177 19.3541 63.14 19.2294 62.8199C19.1047 62.4997 19.043 62.1474 19.043 61.763C19.043 61.3786 19.1047 61.0366 19.2294 60.7164C19.3541 60.3963 19.5303 60.1186 19.7578 59.8833C19.9854 59.648 20.258 59.4654 20.5743 59.333C20.8905 59.2019 21.2415 59.135 21.626 59.135C22.0104 59.135 22.3473 59.1993 22.6777 59.3266C23.0081 59.4552 23.2987 59.6544 23.5481 59.9244L22.886 60.512L22.8847 60.5159Z" fill="#006DAD"/>
<path d="M24.3594 57.311C24.3594 57.1477 24.4185 57.005 24.5355 56.8842C24.6525 56.7633 24.7978 56.7029 24.9675 56.7029C25.1372 56.7029 25.2825 56.7633 25.3995 56.8842C25.5165 57.005 25.5757 57.1477 25.5757 57.311C25.5757 57.4897 25.5191 57.635 25.4047 57.7482C25.2902 57.8626 25.1449 57.9192 24.9675 57.9192C24.7901 57.9192 24.6435 57.8626 24.5304 57.7482C24.4159 57.635 24.3594 57.4885 24.3594 57.311ZM24.5522 59.2653H25.3854V64.2616H24.5522V59.2653Z" fill="#006DAD"/>
<path d="M26.9763 59.9068C27.2322 59.6432 27.5369 59.4491 27.8892 59.3244C28.2415 59.1997 28.5989 59.1379 28.9628 59.1379C29.7033 59.1379 30.2369 59.3128 30.5648 59.6612C30.8913 60.0097 31.0559 60.5407 31.0559 61.2517V63.3975C31.0559 63.5402 31.0623 63.6881 31.0778 63.8411C31.0932 63.9941 31.1099 64.1342 31.1318 64.2628H30.3308C30.3025 64.1484 30.2858 64.0224 30.2832 63.8835C30.2793 63.7447 30.278 63.6212 30.278 63.5145H30.2562C30.0929 63.7704 29.873 63.9812 29.5992 64.1445C29.3253 64.3078 28.9962 64.3901 28.6118 64.3901C28.3559 64.3901 28.1155 64.3579 27.8905 64.2937C27.6668 64.2294 27.47 64.1355 27.3029 64.0108C27.1358 63.8861 27.002 63.7318 26.903 63.5467C26.8028 63.3615 26.7539 63.1481 26.7539 62.9064C26.7539 62.4937 26.8606 62.1697 27.074 61.9344C27.2875 61.6991 27.5523 61.5255 27.8699 61.4111C28.1862 61.2967 28.5282 61.2259 28.8946 61.1977C29.261 61.1694 29.5979 61.1552 29.9039 61.1552H30.2241V61.0061C30.2241 60.6435 30.1148 60.3697 29.8988 60.1845C29.6815 59.9994 29.3768 59.9068 28.9859 59.9068C28.7159 59.9068 28.4498 59.9518 28.19 60.0405C27.9303 60.1292 27.7002 60.2668 27.5009 60.4519L26.9776 59.9068H26.9763ZM29.3896 61.8611C28.856 61.8611 28.4318 61.9357 28.1193 62.0848C27.8056 62.2339 27.65 62.4795 27.65 62.8215C27.65 63.1352 27.7555 63.3577 27.965 63.4888C28.1746 63.6212 28.4369 63.6868 28.7493 63.6868C28.991 63.6868 29.2032 63.6457 29.3845 63.5647C29.5658 63.4824 29.7175 63.3744 29.8383 63.2394C29.9592 63.1044 30.0518 62.9462 30.116 62.7649C30.1803 62.5837 30.215 62.3895 30.2228 62.1825V61.8624H29.3896V61.8611Z" fill="#006DAD"/>
<path d="M32.6562 56.1907H33.4894V64.2624H32.6562V56.1907Z" fill="#006DAD"/>
<path d="M41.8486 58.0379C41.6994 57.7961 41.5001 57.62 41.2507 57.5094C41.0013 57.3989 40.7416 57.3436 40.4716 57.3436C40.2723 57.3436 40.0768 57.368 39.884 57.4181C39.6924 57.4683 39.5188 57.5429 39.3658 57.6419C39.2128 57.7421 39.0894 57.8733 38.9968 58.0366C38.9043 58.1999 38.858 58.3927 38.858 58.6126C38.858 58.7836 38.885 58.934 38.9377 59.0664C38.9904 59.1989 39.0778 59.3171 39.1987 59.4239C39.3196 59.5306 39.4829 59.6309 39.6899 59.7234C39.8969 59.816 40.1488 59.9086 40.4484 60.0011C40.7403 60.0937 41.0231 60.1927 41.297 60.2994C41.5709 60.4061 41.8126 60.5411 42.0234 60.7057C42.233 60.869 42.4001 61.0734 42.5248 61.3203C42.6496 61.5659 42.7113 61.8731 42.7113 62.2434C42.7113 62.6137 42.6367 62.948 42.4876 63.2257C42.3384 63.5034 42.1404 63.7323 41.8948 63.9149C41.6493 64.0961 41.3664 64.2311 41.0463 64.3211C40.7261 64.4099 40.3957 64.4549 40.0537 64.4549C39.8326 64.4549 39.6127 64.4356 39.3916 64.3957C39.1704 64.3571 38.9596 64.2954 38.7564 64.2144C38.5533 64.1321 38.363 64.0254 38.1856 63.8943C38.0081 63.7619 37.8551 63.5999 37.7266 63.4083L38.4954 62.7783C38.6587 63.056 38.8863 63.2656 39.1781 63.4083C39.47 63.551 39.7799 63.6217 40.1077 63.6217C40.2993 63.6217 40.4934 63.5934 40.6901 63.5369C40.8856 63.4803 41.0617 63.3967 41.2186 63.2861C41.3754 63.1756 41.5027 63.0393 41.603 62.8747C41.702 62.7114 41.7521 62.5224 41.7521 62.309C41.7521 62.0737 41.7136 61.8834 41.6351 61.7381C41.5567 61.5929 41.4359 61.4656 41.2726 61.3589C41.1093 61.2521 40.9023 61.1557 40.6528 61.0709C40.4034 60.986 40.1116 60.8857 39.7773 60.7713C39.5073 60.6864 39.2579 60.5887 39.0303 60.4781C38.8027 60.3676 38.6047 60.2326 38.4376 60.0719C38.2704 59.9111 38.138 59.7196 38.0429 59.4959C37.9464 59.2721 37.8988 59.0034 37.8988 58.6897C37.8988 58.3271 37.9696 58.0096 38.1123 57.7396C38.255 57.4696 38.4466 57.2433 38.6883 57.062C38.93 56.8807 39.2038 56.7431 39.5098 56.6506C39.8158 56.558 40.136 56.5117 40.4703 56.5117C40.8971 56.5117 41.2867 56.5773 41.639 56.7097C41.9913 56.8421 42.3063 57.071 42.584 57.3989L41.8473 58.0391L41.8486 58.0379Z" fill="#006DAD"/>
<path d="M48.5085 63.3567C48.2102 63.7412 47.8824 64.0099 47.5262 64.1629C47.1701 64.3159 46.7574 64.393 46.2881 64.393C45.896 64.393 45.5437 64.3236 45.2312 64.1847C44.9175 64.0459 44.6527 63.8594 44.4354 63.6242C44.2181 63.3889 44.051 63.1112 43.934 62.791C43.817 62.4709 43.7578 62.1289 43.7578 61.7663C43.7578 61.3819 43.8221 61.0283 43.9494 60.7043C44.078 60.3803 44.2554 60.1026 44.483 59.8712C44.7105 59.6397 44.9805 59.4597 45.2942 59.3324C45.608 59.2039 45.9487 59.1409 46.319 59.1409C46.6674 59.1409 46.9875 59.2 47.2794 59.317C47.5712 59.434 47.822 59.605 48.0315 59.83C48.2411 60.0537 48.4031 60.3289 48.5175 60.6516C48.6307 60.9756 48.6885 61.3433 48.6885 61.756V62.0234H44.6527C44.6668 62.2369 44.7182 62.4413 44.807 62.6367C44.8957 62.8322 45.0114 63.0032 45.1541 63.1497C45.2968 63.2963 45.464 63.4107 45.6555 63.4969C45.8471 63.5817 46.058 63.6254 46.2855 63.6254C46.6481 63.6254 46.9541 63.5612 47.2035 63.4339C47.453 63.3053 47.6767 63.1176 47.876 62.8682L48.506 63.3593L48.5085 63.3567ZM47.7937 61.3163C47.7795 60.8894 47.6407 60.5474 47.3771 60.2916C47.1135 60.0357 46.751 59.9072 46.2881 59.9072C45.8252 59.9072 45.4511 60.0357 45.167 60.2916C44.8815 60.5474 44.7118 60.8894 44.654 61.3163H47.7937Z" fill="#006DAD"/>
<path d="M53.5409 60.5159C53.3635 60.3024 53.1706 60.1482 52.9649 60.0517C52.7579 59.9553 52.5304 59.9077 52.2809 59.9077C52.0032 59.9077 51.7576 59.9553 51.5442 60.0517C51.3308 60.1482 51.1546 60.2819 51.0158 60.4516C50.8769 60.6213 50.7715 60.8193 50.7008 61.0443C50.6301 61.268 50.5941 61.5084 50.5941 61.7643C50.5941 62.0202 50.6352 62.2606 50.7175 62.4856C50.7998 62.7093 50.9129 62.9073 51.0595 63.0783C51.2048 63.2493 51.3809 63.383 51.5879 63.4782C51.7936 63.5746 52.0251 63.6222 52.2822 63.6222C52.8299 63.6222 53.2542 63.4164 53.5525 63.0024L54.1722 63.59C53.9305 63.8677 53.6451 64.0709 53.3185 64.1982C52.9906 64.3267 52.6461 64.3897 52.2822 64.3897C51.8978 64.3897 51.5455 64.3254 51.2254 64.1982C50.9052 64.0696 50.6326 63.8883 50.4089 63.653C50.1852 63.4177 50.0104 63.14 49.8856 62.8199C49.7609 62.4997 49.6992 62.1474 49.6992 61.763C49.6992 61.3786 49.7609 61.0366 49.8856 60.7164C50.0104 60.3963 50.1865 60.1186 50.4141 59.8833C50.6416 59.648 50.9142 59.4654 51.2305 59.333C51.5468 59.2019 51.8978 59.135 52.2822 59.135C52.6666 59.135 53.0035 59.1993 53.3339 59.3266C53.6644 59.4552 53.9549 59.6544 54.2044 59.9244L53.5422 60.512L53.5409 60.5159Z" fill="#006DAD"/>
<path d="M59.4836 63.078C59.4836 63.3056 59.49 63.519 59.5055 63.7183C59.5196 63.9176 59.5273 64.0989 59.5273 64.2634H58.7379C58.7379 64.1284 58.7341 63.9934 58.7276 63.8572C58.7199 63.7222 58.7173 63.5833 58.7173 63.4406H58.6955C58.6389 63.5614 58.5579 63.6784 58.4551 63.7929C58.3522 63.9073 58.2288 64.0089 58.086 64.0976C57.9433 64.1863 57.7839 64.2583 57.6052 64.311C57.4265 64.3637 57.2349 64.3907 57.0292 64.3907C56.7013 64.3907 56.4185 64.3406 56.1806 64.2416C55.9415 64.1426 55.7448 64.0037 55.5879 63.825C55.4311 63.6476 55.3153 63.4316 55.2408 63.1783C55.1662 62.9263 55.1289 62.6499 55.1289 62.3516V59.2659H55.9621V62.2654C55.9621 62.6859 56.0546 63.0163 56.2398 63.258C56.4249 63.4997 56.7129 63.6206 57.1051 63.6206C57.3751 63.6206 57.609 63.5743 57.8045 63.4817C57.9999 63.3892 58.1606 63.258 58.2853 63.087C58.4101 62.916 58.5026 62.7129 58.5631 62.4789C58.6235 62.2436 58.6543 61.9839 58.6543 61.6997V59.2659H59.4875V63.078H59.4836Z" fill="#006DAD"/>
<path d="M61.0672 60.4519C61.0672 60.2244 61.0594 60.0109 61.0453 59.8117C61.0312 59.6124 61.0234 59.4311 61.0234 59.2665H61.8129C61.8129 59.4015 61.8167 59.5365 61.8232 59.6715C61.8296 59.8065 61.8334 59.9454 61.8334 60.0881H61.8553C61.9119 59.9672 61.9929 59.8502 62.0957 59.7358C62.1986 59.6214 62.322 59.5198 62.4647 59.4311C62.6074 59.3424 62.7669 59.2704 62.9456 59.2177C63.123 59.1637 63.3159 59.1379 63.5216 59.1379C63.5782 59.1379 63.6347 59.1418 63.6926 59.1482C63.7492 59.1547 63.807 59.1701 63.8636 59.1907L63.8109 60.0341C63.6682 59.9917 63.519 59.9698 63.3622 59.9698C62.8492 59.9698 62.4776 60.1357 62.2462 60.4661C62.0147 60.7965 61.899 61.2504 61.899 61.8277V64.2615H61.0659V60.4494L61.0672 60.4519Z" fill="#006DAD"/>
<path d="M64.707 57.311C64.707 57.1477 64.7662 57.005 64.8832 56.8842C65.0002 56.7633 65.1455 56.7029 65.3152 56.7029C65.4849 56.7029 65.6302 56.7633 65.7472 56.8842C65.8642 57.005 65.9233 57.1477 65.9233 57.311C65.9233 57.4897 65.8667 57.635 65.7523 57.7482C65.6379 57.8626 65.4926 57.9192 65.3152 57.9192C65.1377 57.9192 64.9912 57.8626 64.878 57.7482C64.7636 57.635 64.707 57.4885 64.707 57.311ZM64.8986 59.2653H65.7317V64.2616H64.8986V59.2653Z" fill="#006DAD"/>
<path d="M70.1195 59.9707H68.6461V62.4689C68.6461 62.6322 68.6499 62.7839 68.6564 62.9227C68.6628 63.0616 68.6924 63.1825 68.7412 63.2853C68.7914 63.3882 68.8659 63.4705 68.9649 63.5309C69.0639 63.5913 69.2066 63.6209 69.3918 63.6209C69.5126 63.6209 69.6374 63.6067 69.7659 63.5785C69.8945 63.5502 70.0154 63.5077 70.1285 63.4499L70.1607 64.2085C70.0179 64.2727 69.8598 64.319 69.6849 64.3473C69.5101 64.3756 69.3455 64.3897 69.1887 64.3897C68.8904 64.3897 68.6512 64.3512 68.4738 64.2727C68.2964 64.1943 68.1575 64.0837 68.0572 63.9423C67.9569 63.7996 67.8914 63.6235 67.8592 63.4139C67.8271 63.2043 67.8117 62.9703 67.8117 62.7145V59.9707H66.7227V59.2662H67.8117V57.8455H68.6448V59.2662H70.1182V59.9707H70.1195Z" fill="#006DAD"/>
<path d="M72.9783 65.4052C72.8922 65.6186 72.806 65.8127 72.716 65.9876C72.6273 66.1612 72.5206 66.3116 72.3959 66.4363C72.2712 66.561 72.122 66.6562 71.9472 66.7243C71.7723 66.7912 71.5615 66.8259 71.312 66.8259C71.1912 66.8259 71.0652 66.8194 70.9327 66.804C70.8016 66.7899 70.6782 66.7539 70.5637 66.6973L70.6705 65.9709C70.7553 66.0069 70.8453 66.03 70.9379 66.0403C71.0305 66.0506 71.1372 66.0557 71.258 66.0557C71.528 66.0557 71.7273 65.9812 71.8559 65.832C71.9845 65.6829 72.0937 65.4836 72.1863 65.2342L72.5283 64.2943L70.457 59.2659H71.429L72.977 63.1847H72.9989L74.4826 59.2659H75.3903L72.977 65.4052H72.9783Z" fill="#006DAD"/>
<path d="M79.2695 56.7029H82.174C82.4234 56.7029 82.687 56.7312 82.9647 56.7877C83.2424 56.8443 83.5175 56.9356 83.7927 57.0603C84.0665 57.185 84.3301 57.347 84.5821 57.5463C84.8354 57.7456 85.0578 57.986 85.2494 58.2676C85.441 58.5492 85.594 58.8732 85.7084 59.2396C85.8215 59.606 85.8794 60.0213 85.8794 60.4829C85.8794 60.9445 85.8228 61.361 85.7084 61.7262C85.594 62.0926 85.441 62.4166 85.2494 62.6982C85.0578 62.9797 84.8341 63.2189 84.5821 63.4182C84.3288 63.6175 84.0665 63.7795 83.7927 63.9042C83.5188 64.0289 83.2424 64.1202 82.9647 64.1767C82.687 64.2333 82.4234 64.2616 82.174 64.2616H79.2695V56.7029ZM80.167 63.4297H81.8757C82.3102 63.4297 82.7114 63.3732 83.0817 63.2587C83.452 63.1443 83.7721 62.9695 84.0421 62.7303C84.3121 62.4925 84.5255 62.1877 84.6824 61.8175C84.8393 61.4472 84.9177 61.0023 84.9177 60.4829C84.9177 59.9635 84.8393 59.5186 84.6824 59.1483C84.5255 58.778 84.3121 58.4746 84.0421 58.2355C83.7721 57.9976 83.4507 57.8215 83.0817 57.707C82.7114 57.5926 82.309 57.536 81.8757 57.536H80.167V63.4297Z" fill="#006DAD"/>
<path d="M87.0547 57.311C87.0547 57.1477 87.1138 57.005 87.2308 56.8842C87.3478 56.7633 87.4931 56.7029 87.6628 56.7029C87.8325 56.7029 87.9778 56.7633 88.0948 56.8842C88.2118 57.005 88.271 57.1477 88.271 57.311C88.271 57.4897 88.2144 57.635 88.1 57.7482C87.9855 57.8626 87.8403 57.9192 87.6628 57.9192C87.4854 57.9192 87.3388 57.8626 87.2257 57.7482C87.1113 57.635 87.0547 57.4885 87.0547 57.311ZM87.2463 59.2653H88.0794V64.2616H87.2463V59.2653Z" fill="#006DAD"/>
<path d="M89.8405 62.9498C90.0038 63.1568 90.1838 63.3201 90.3792 63.4409C90.5746 63.5618 90.8228 63.6222 91.1211 63.6222C91.2496 63.6222 91.3795 63.6081 91.5106 63.5798C91.6418 63.5515 91.7614 63.5052 91.8681 63.4409C91.9748 63.3766 92.0596 63.2969 92.1239 63.2005C92.1882 63.1041 92.2204 62.9883 92.2204 62.8533C92.2204 62.7183 92.1895 62.6078 92.1291 62.5229C92.0686 62.4381 91.9889 62.3648 91.8886 62.3043C91.7883 62.2439 91.6752 62.1963 91.5466 62.1603C91.4181 62.1243 91.2869 62.0922 91.1519 62.0639C90.9166 62.0138 90.6929 61.9572 90.4795 61.8929C90.2661 61.8286 90.0796 61.7451 89.9189 61.6422C89.7582 61.5393 89.6309 61.4056 89.5345 61.2423C89.4381 61.0791 89.3905 60.8682 89.3905 60.6123C89.3905 60.3706 89.4445 60.1572 89.5512 59.9721C89.6579 59.7869 89.8006 59.6339 89.9781 59.5131C90.1555 59.3922 90.3548 59.2996 90.5759 59.2353C90.7971 59.1711 91.0246 59.1389 91.2586 59.1389C91.6148 59.1389 91.9439 59.2096 92.2461 59.3523C92.5482 59.4951 92.7848 59.7265 92.9558 60.0466L92.2615 60.5056C92.1548 60.3282 92.0146 60.1842 91.8398 60.0736C91.6649 59.9631 91.4541 59.9078 91.2046 59.9078C91.0902 59.9078 90.9745 59.9219 90.8575 59.9502C90.7405 59.9785 90.6351 60.0209 90.5425 60.0788C90.4499 60.1353 90.3728 60.2086 90.3123 60.2973C90.2519 60.3861 90.2211 60.4876 90.2211 60.6021C90.2211 60.7088 90.2545 60.8001 90.3226 60.8746C90.3895 60.9492 90.4833 61.0148 90.6003 61.0726C90.7173 61.1292 90.8524 61.1793 91.0066 61.2218C91.1596 61.2642 91.3178 61.3002 91.4811 61.3285C91.7022 61.3709 91.9118 61.4262 92.1111 61.4943C92.3103 61.5625 92.4852 61.6525 92.6343 61.7669C92.7835 61.8813 92.9018 62.0228 92.9866 62.1938C93.0728 62.3648 93.1152 62.5743 93.1152 62.8238C93.1152 63.1079 93.0586 63.3509 92.9442 63.5502C92.8298 63.7495 92.6793 63.9115 92.4903 64.0362C92.3013 64.1609 92.0879 64.2522 91.8501 64.3088C91.6109 64.3653 91.3679 64.3936 91.1185 64.3936C90.6916 64.3936 90.3226 64.3281 90.0141 64.1956C89.7042 64.0645 89.4252 63.8202 89.1758 63.4641L89.8379 62.9511L89.8405 62.9498Z" fill="#006DAD"/>
<path d="M94.2146 59.9068C94.4705 59.6432 94.7752 59.4491 95.1275 59.3244C95.4798 59.1997 95.8372 59.1379 96.201 59.1379C96.9416 59.1379 97.4752 59.3128 97.803 59.6612C98.1296 60.0097 98.2942 60.5407 98.2942 61.2517V63.3975C98.2942 63.5402 98.3006 63.6881 98.316 63.8411C98.3315 63.9941 98.3482 64.1342 98.37 64.2628H97.569C97.5408 64.1484 97.524 64.0224 97.5215 63.8835C97.5176 63.7447 97.5163 63.6212 97.5163 63.5145H97.4945C97.3312 63.7704 97.1113 63.9812 96.8375 64.1445C96.5636 64.3078 96.2345 64.3901 95.85 64.3901C95.5942 64.3901 95.3538 64.3579 95.1288 64.2937C94.905 64.2294 94.7083 64.1355 94.5412 64.0108C94.374 63.8861 94.2403 63.7318 94.1413 63.5467C94.041 63.3615 93.9922 63.1481 93.9922 62.9064C93.9922 62.4937 94.0989 62.1697 94.3123 61.9344C94.5258 61.6991 94.7906 61.5255 95.1082 61.4111C95.4245 61.2967 95.7665 61.2259 96.1329 61.1977C96.4993 61.1694 96.8362 61.1552 97.1422 61.1552H97.4623V61.0061C97.4623 60.6435 97.353 60.3697 97.137 60.1845C96.9198 59.9994 96.615 59.9068 96.2242 59.9068C95.9542 59.9068 95.688 59.9518 95.4283 60.0405C95.1686 60.1292 94.9385 60.2668 94.7392 60.4519L94.2159 59.9068H94.2146ZM96.6279 61.8611C96.0943 61.8611 95.67 61.9357 95.3576 62.0848C95.0439 62.2339 94.8883 62.4795 94.8883 62.8215C94.8883 63.1352 94.9938 63.3577 95.2033 63.4888C95.4129 63.6212 95.6752 63.6868 95.9876 63.6868C96.2293 63.6868 96.4415 63.6457 96.6228 63.5647C96.804 63.4824 96.9558 63.3744 97.0766 63.2394C97.1975 63.1044 97.29 62.9462 97.3543 62.7649C97.4186 62.5837 97.4533 62.3895 97.461 62.1825V61.8624H96.6279V61.8611Z" fill="#006DAD"/>
<path d="M99.7773 56.1907H100.61V59.9912H100.632C100.86 59.7212 101.125 59.5104 101.428 59.3612C101.73 59.2121 102.063 59.1375 102.426 59.1375C102.817 59.1375 103.175 59.2031 103.499 59.3355C103.823 59.468 104.099 59.6505 104.327 59.8858C104.555 60.1211 104.734 60.3988 104.861 60.719C104.99 61.0391 105.053 61.3875 105.053 61.7655C105.053 62.1435 104.988 62.492 104.861 62.8121C104.732 63.1322 104.556 63.41 104.333 63.6452C104.109 63.8805 103.843 64.0631 103.537 64.1955C103.231 64.3267 102.903 64.3935 102.554 64.3935C102.106 64.3935 101.712 64.2958 101.374 64.0991C101.036 63.9037 100.788 63.6632 100.632 63.3791H100.61V64.265H99.7773V56.1932V56.1907ZM100.61 61.7642C100.61 62.0278 100.652 62.2708 100.734 62.4958C100.816 62.7195 100.934 62.9162 101.091 63.0834C101.248 63.2505 101.435 63.383 101.652 63.4781C101.869 63.5745 102.112 63.6221 102.383 63.6221C102.655 63.6221 102.898 63.5745 103.115 63.4781C103.332 63.3817 103.519 63.2505 103.676 63.0834C103.832 62.9162 103.951 62.7208 104.033 62.4958C104.115 62.2721 104.155 62.0278 104.155 61.7642C104.155 61.5007 104.114 61.2577 104.033 61.0327C103.951 60.809 103.831 60.6122 103.676 60.4451C103.519 60.278 103.332 60.1468 103.115 60.0504C102.898 59.954 102.653 59.9064 102.383 59.9064C102.113 59.9064 101.869 59.954 101.652 60.0504C101.435 60.1468 101.248 60.278 101.091 60.4451C100.934 60.6122 100.815 60.8077 100.734 61.0327C100.652 61.2564 100.61 61.5007 100.61 61.7642Z" fill="#006DAD"/>
<path d="M106.23 57.311C106.23 57.1477 106.29 57.005 106.407 56.8842C106.524 56.7633 106.669 56.7029 106.839 56.7029C107.008 56.7029 107.154 56.7633 107.271 56.8842C107.388 57.005 107.447 57.1477 107.447 57.311C107.447 57.4897 107.39 57.635 107.276 57.7482C107.161 57.8626 107.016 57.9192 106.839 57.9192C106.661 57.9192 106.515 57.8626 106.401 57.7482C106.287 57.635 106.23 57.4885 106.23 57.311ZM106.423 59.2653H107.256V64.2616H106.423V59.2653Z" fill="#006DAD"/>
<path d="M108.984 56.1907H109.818V64.2624H108.984V56.1907Z" fill="#006DAD"/>
<path d="M111.363 57.311C111.363 57.1477 111.422 57.005 111.539 56.8842C111.656 56.7633 111.802 56.7029 111.971 56.7029C112.141 56.7029 112.286 56.7633 112.403 56.8842C112.52 57.005 112.58 57.1477 112.58 57.311C112.58 57.4897 112.523 57.635 112.409 57.7482C112.294 57.8626 112.149 57.9192 111.971 57.9192C111.794 57.9192 111.647 57.8626 111.534 57.7482C111.42 57.635 111.363 57.4885 111.363 57.311ZM111.556 59.2653H112.389V64.2616H111.556V59.2653Z" fill="#006DAD"/>
<path d="M116.776 59.9707H115.302V62.4689C115.302 62.6322 115.306 62.7839 115.313 62.9227C115.319 63.0616 115.349 63.1825 115.397 63.2853C115.448 63.3882 115.522 63.4705 115.621 63.5309C115.72 63.5913 115.863 63.6209 116.048 63.6209C116.169 63.6209 116.294 63.6067 116.422 63.5785C116.551 63.5502 116.672 63.5077 116.785 63.4499L116.817 64.2085C116.674 64.2727 116.516 64.319 116.341 64.3473C116.166 64.3756 116.002 64.3897 115.845 64.3897C115.547 64.3897 115.307 64.3512 115.13 64.2727C114.953 64.1943 114.814 64.0837 114.713 63.9423C114.613 63.7996 114.548 63.6235 114.515 63.4139C114.483 63.2043 114.468 62.9703 114.468 62.7145V59.9707H113.379V59.2662H114.468V57.8455H115.301V59.2662H116.774V59.9707H116.776Z" fill="#006DAD"/>
<path d="M119.638 65.4052C119.552 65.6186 119.466 65.8127 119.376 65.9876C119.287 66.1612 119.181 66.3116 119.056 66.4363C118.931 66.561 118.782 66.6562 118.607 66.7243C118.432 66.7912 118.222 66.8259 117.972 66.8259C117.851 66.8259 117.725 66.8194 117.593 66.804C117.462 66.7899 117.338 66.7539 117.224 66.6973L117.331 65.9709C117.415 66.0069 117.505 66.03 117.598 66.0403C117.691 66.0506 117.797 66.0557 117.918 66.0557C118.188 66.0557 118.387 65.9812 118.516 65.832C118.645 65.6829 118.754 65.4836 118.846 65.2342L119.188 64.2943L117.117 59.2659H118.089L119.637 63.1847H119.659L121.143 59.2659H122.05L119.637 65.4052H119.638Z" fill="#006DAD"/>
<path d="M50.0672 49.4661H50.4645L51.9804 53.0301H51.4867L51.1241 52.1545H49.3421L48.9744 53.0301H48.4961L50.0672 49.4661ZM50.2588 50.0099H50.2485L49.508 51.7623H50.9634L50.2588 50.0099Z" fill="#009F4A"/>
<path d="M54.3418 52.6116H54.3315C54.2582 52.7453 54.1412 52.8598 53.9818 52.9511C53.8224 53.0436 53.6372 53.0899 53.4251 53.0899C53.2605 53.0899 53.1062 53.0591 52.9622 52.9973C52.8182 52.9356 52.6935 52.8482 52.5868 52.7376C52.4814 52.627 52.3978 52.4959 52.3374 52.3442C52.277 52.1938 52.2461 52.0292 52.2461 51.8505C52.2461 51.6718 52.277 51.5085 52.3374 51.3568C52.3978 51.2051 52.4814 51.0752 52.5894 50.9633C52.6961 50.8528 52.8272 50.7666 52.979 50.7036C53.132 50.6419 53.3004 50.6111 53.4855 50.6111C53.6565 50.6111 53.8134 50.6458 53.9561 50.7165C54.0988 50.7872 54.2235 50.8862 54.3315 51.0135H54.3418V49.2212H54.734V53.0269H54.3418V52.609V52.6116ZM54.3418 51.8518C54.3418 51.7271 54.3225 51.6126 54.284 51.5072C54.2454 51.4018 54.1888 51.3092 54.1155 51.2308C54.0422 51.1523 53.9535 51.0893 53.8507 51.0443C53.7478 50.9993 53.6334 50.9762 53.5061 50.9762C53.3788 50.9762 53.2631 50.9993 53.1615 51.0443C53.0587 51.0893 52.9712 51.1523 52.8967 51.2308C52.8221 51.3092 52.7668 51.4018 52.7282 51.5072C52.6897 51.6126 52.6704 51.7283 52.6704 51.8518C52.6704 51.9752 52.6897 52.0909 52.7282 52.1963C52.7668 52.3018 52.8234 52.3943 52.8967 52.4728C52.97 52.5512 53.0587 52.6142 53.1615 52.6592C53.2644 52.7042 53.3788 52.7273 53.5061 52.7273C53.6334 52.7273 53.7491 52.7042 53.8507 52.6592C53.9522 52.6142 54.041 52.5512 54.1155 52.4728C54.1888 52.3943 54.2454 52.3018 54.284 52.1963C54.3225 52.0909 54.3418 51.9752 54.3418 51.8518Z" fill="#009F4A"/>
<path d="M56.5317 53.0286H56.0984L55.1367 50.6719H55.5944L56.3299 52.5194H56.3401L57.0396 50.6719H57.4626L56.5317 53.0286Z" fill="#009F4A"/>
<path d="M57.75 51.8511C57.75 51.6659 57.7821 51.4988 57.8451 51.3471C57.9094 51.1953 57.9969 51.0655 58.1074 50.9562C58.218 50.8469 58.3504 50.7621 58.5047 50.7016C58.659 50.6412 58.8274 50.6104 59.0087 50.6104C59.19 50.6104 59.3571 50.6412 59.5127 50.7016C59.667 50.7621 59.7994 50.8469 59.91 50.9562C60.0206 51.0655 60.108 51.1953 60.1723 51.3471C60.2366 51.4975 60.2674 51.6659 60.2674 51.8511C60.2674 52.0362 60.2353 52.2034 60.1723 52.3538C60.108 52.5055 60.0219 52.6353 59.91 52.7446C59.7994 52.8539 59.667 52.9388 59.5127 52.9992C59.3584 53.0596 59.19 53.0905 59.0087 53.0905C58.8274 53.0905 58.659 53.0596 58.5047 52.9992C58.3504 52.9388 58.218 52.8539 58.1074 52.7446C57.9969 52.6353 57.9094 52.5055 57.8451 52.3538C57.7809 52.2034 57.75 52.0349 57.75 51.8511ZM58.173 51.8511C58.173 51.9745 58.1923 52.0902 58.2309 52.1956C58.2694 52.3011 58.326 52.3936 58.3993 52.4721C58.4726 52.5505 58.5613 52.6135 58.6641 52.6585C58.767 52.7035 58.8814 52.7266 59.0087 52.7266C59.136 52.7266 59.2517 52.7035 59.3533 52.6585C59.4549 52.6135 59.5436 52.5505 59.6181 52.4721C59.6914 52.3936 59.748 52.3011 59.7866 52.1956C59.8251 52.0902 59.8444 51.9745 59.8444 51.8511C59.8444 51.7276 59.8251 51.6119 59.7866 51.5065C59.748 51.4011 59.6914 51.3085 59.6181 51.2301C59.5449 51.1516 59.4561 51.0886 59.3533 51.0436C59.2504 50.9986 59.136 50.9755 59.0087 50.9755C58.8814 50.9755 58.7657 50.9986 58.6641 51.0436C58.5613 51.0886 58.4739 51.1516 58.3993 51.2301C58.3247 51.3085 58.2694 51.4011 58.2309 51.5065C58.1923 51.6119 58.173 51.7276 58.173 51.8511Z" fill="#009F4A"/>
<path d="M62.5511 51.2625C62.4675 51.1622 62.3762 51.0889 62.2785 51.0439C62.1808 50.9989 62.0741 50.9758 61.9558 50.9758C61.8247 50.9758 61.7089 50.9989 61.6087 51.0439C61.5084 51.0889 61.4248 51.1519 61.3592 51.2329C61.2937 51.3139 61.2448 51.4065 61.2101 51.5119C61.1767 51.6174 61.1599 51.7305 61.1599 51.8514C61.1599 51.9722 61.1792 52.0854 61.2178 52.1908C61.2564 52.2962 61.3104 52.3901 61.3785 52.4698C61.4467 52.5495 61.5302 52.6138 61.6279 52.6588C61.7257 52.7038 61.8337 52.7269 61.9545 52.7269C62.2129 52.7269 62.4122 52.6292 62.5537 52.4351L62.8455 52.7115C62.7311 52.8427 62.5974 52.9378 62.4431 52.9982C62.2888 53.0587 62.1255 53.0895 61.9545 53.0895C61.7732 53.0895 61.6074 53.0587 61.4557 52.9982C61.3039 52.9378 61.1767 52.8517 61.0699 52.7411C60.9645 52.6305 60.8822 52.4994 60.8231 52.3477C60.7639 52.1972 60.7344 52.0301 60.7344 51.8488C60.7344 51.6675 60.7639 51.5068 60.8231 51.3551C60.8822 51.2034 60.9645 51.0735 61.0725 50.9617C61.1792 50.8511 61.3078 50.7649 61.4582 50.7019C61.6074 50.6402 61.7732 50.6094 61.9545 50.6094C62.1358 50.6094 62.2939 50.6402 62.4508 50.7007C62.6064 50.7611 62.7439 50.8549 62.8609 50.9822L62.5485 51.2587L62.5511 51.2625Z" fill="#009F4A"/>
<path d="M63.2734 50.9739C63.3943 50.8505 63.5383 50.7579 63.7041 50.7C63.87 50.6409 64.0384 50.6113 64.2107 50.6113C64.5591 50.6113 64.8111 50.6936 64.9654 50.8582C65.1197 51.0228 65.1968 51.2722 65.1968 51.6078V52.6196C65.1968 52.6865 65.2007 52.7559 65.2071 52.8279C65.2135 52.8999 65.2225 52.9668 65.2328 53.0272H64.8548C64.842 52.9732 64.8343 52.914 64.8317 52.8485C64.8304 52.7829 64.8291 52.725 64.8291 52.6749H64.8188C64.7417 52.7958 64.6388 52.8948 64.509 52.9719C64.3791 53.049 64.2248 53.0876 64.0435 53.0876C63.9227 53.0876 63.8095 53.0722 63.7041 53.0426C63.5987 53.0118 63.5061 52.968 63.4277 52.9089C63.3493 52.8498 63.2863 52.7778 63.2387 52.6903C63.1911 52.6029 63.168 52.5026 63.168 52.3882C63.168 52.194 63.2181 52.041 63.3197 51.9305C63.42 51.8199 63.546 51.7376 63.6951 51.6836C63.8443 51.6296 64.005 51.5962 64.1785 51.5833C64.3508 51.5705 64.5103 51.5628 64.6543 51.5628H64.806V51.492C64.806 51.321 64.7545 51.1912 64.653 51.105C64.5501 51.0176 64.4074 50.9739 64.2223 50.9739C64.095 50.9739 63.9703 50.9945 63.8468 51.0369C63.7247 51.0793 63.6154 51.1436 63.5215 51.231L63.2747 50.9739H63.2734ZM64.4113 51.8958C64.1593 51.8958 63.96 51.9305 63.8121 52.0012C63.6643 52.0719 63.591 52.1876 63.591 52.3483C63.591 52.4962 63.6398 52.6016 63.7388 52.6633C63.8378 52.725 63.9613 52.7559 64.1091 52.7559C64.2235 52.7559 64.3225 52.7366 64.4087 52.698C64.4948 52.6595 64.5655 52.608 64.6221 52.545C64.6787 52.482 64.7224 52.4062 64.7533 52.3213C64.7841 52.2352 64.8008 52.1439 64.8034 52.0475V51.8958H64.4113Z" fill="#009F4A"/>
<path d="M67.2049 51.0052H66.5106V52.1829C66.5106 52.2601 66.5119 52.3321 66.5158 52.3964C66.5196 52.4619 66.5325 52.5185 66.5556 52.5674C66.5788 52.6162 66.6147 52.6548 66.661 52.6831C66.7073 52.7114 66.7755 52.7255 66.8629 52.7255C66.9195 52.7255 66.9786 52.7191 67.039 52.7049C67.0995 52.6908 67.156 52.6715 67.21 52.6445L67.2255 53.0019C67.1586 53.0328 67.084 53.0534 67.0018 53.0675C66.9195 53.0804 66.841 53.0881 66.7678 53.0881C66.6263 53.0881 66.5145 53.0701 66.4309 53.0328C66.3473 52.9955 66.2818 52.9441 66.2342 52.8772C66.1866 52.8104 66.1558 52.7268 66.1416 52.6278C66.1262 52.5288 66.1185 52.4182 66.1185 52.2987V51.0052H65.6055V50.6735H66.1185V50.0037H66.5106V50.6735H67.2049V51.0052Z" fill="#009F4A"/>
<path d="M69.7918 52.6006C69.6504 52.7819 69.4961 52.9079 69.3289 52.9812C69.1605 53.0532 68.9663 53.0892 68.7452 53.0892C68.5601 53.0892 68.3942 53.0571 68.2463 52.9915C68.0985 52.9259 67.9738 52.8385 67.8709 52.7266C67.7681 52.6161 67.6896 52.4849 67.6343 52.3345C67.5791 52.1828 67.5508 52.0221 67.5508 51.8511C67.5508 51.6698 67.5816 51.5026 67.6421 51.3496C67.7025 51.1966 67.7861 51.0655 67.8941 50.9562C68.0008 50.8469 68.1293 50.7621 68.2772 50.7016C68.4251 50.6412 68.5858 50.6104 68.7606 50.6104C68.9252 50.6104 69.0756 50.6386 69.2132 50.6939C69.3508 50.7492 69.4691 50.8302 69.5681 50.9356C69.6671 51.0411 69.7429 51.1709 69.7969 51.3226C69.8509 51.4756 69.8779 51.6492 69.8779 51.8434V51.9693H67.9751C67.9815 52.0696 68.0059 52.1661 68.0484 52.2586C68.0908 52.3512 68.1448 52.4309 68.2116 52.5003C68.2785 52.5698 68.3582 52.6238 68.4482 52.6636C68.5382 52.7035 68.6372 52.7241 68.7452 52.7241C68.9162 52.7241 69.0602 52.6932 69.1785 52.6328C69.2968 52.5723 69.4022 52.4836 69.4961 52.3654L69.7931 52.5968L69.7918 52.6006ZM69.4549 51.6389C69.4485 51.4371 69.3829 51.2764 69.2582 51.1555C69.1335 51.0346 68.9625 50.9742 68.7452 50.9742C68.5279 50.9742 68.3505 51.0346 68.2168 51.1555C68.0831 51.2764 68.0021 51.4371 67.9751 51.6389H69.4549Z" fill="#009F4A"/>
<path d="M70.5377 52.4094C70.6148 52.5071 70.6997 52.5843 70.7923 52.6409C70.8848 52.6974 71.0006 52.727 71.142 52.727C71.2024 52.727 71.2641 52.7206 71.3258 52.7064C71.3876 52.6923 71.4441 52.6717 71.4943 52.6409C71.5444 52.61 71.5856 52.5727 71.6151 52.5277C71.6447 52.4827 71.6601 52.4274 71.6601 52.3644C71.6601 52.3014 71.646 52.2487 71.6177 52.2089C71.5894 52.169 71.5508 52.1343 71.5046 52.106C71.4583 52.0777 71.4043 52.0546 71.3438 52.0379C71.2834 52.0211 71.2217 52.0057 71.1574 51.9929C71.0468 51.9697 70.9414 51.9427 70.8398 51.9119C70.7396 51.881 70.6508 51.8424 70.575 51.7936C70.4991 51.7447 70.4387 51.6817 70.3937 51.6046C70.3487 51.5274 70.3256 51.4284 70.3256 51.3076C70.3256 51.1931 70.35 51.0929 70.4014 51.0054C70.4516 50.918 70.5184 50.846 70.6033 50.7894C70.6868 50.7329 70.7807 50.6891 70.8848 50.6583C70.989 50.6274 71.097 50.6133 71.2076 50.6133C71.3747 50.6133 71.5303 50.6467 71.673 50.7136C71.8157 50.7804 71.9276 50.8897 72.0073 51.0401L71.6807 51.2561C71.6306 51.1726 71.5637 51.1044 71.4814 51.0517C71.3991 51.0003 71.2988 50.9733 71.1818 50.9733C71.1278 50.9733 71.0738 50.9797 71.0186 50.9939C70.9633 51.008 70.9131 51.0273 70.8694 51.0543C70.8257 51.0813 70.7897 51.116 70.7614 51.1571C70.7331 51.1996 70.719 51.2471 70.719 51.3011C70.719 51.3513 70.7344 51.3937 70.7666 51.4297C70.7987 51.4644 70.8424 51.4966 70.8977 51.5223C70.953 51.5493 71.0173 51.5724 71.0893 51.593C71.1613 51.6136 71.2358 51.6303 71.313 51.6431C71.4171 51.6637 71.5161 51.6894 71.61 51.7216C71.7038 51.7537 71.7861 51.7961 71.8568 51.8501C71.9276 51.9041 71.9828 51.971 72.0227 52.052C72.0626 52.133 72.0831 52.232 72.0831 52.349C72.0831 52.4827 72.0561 52.5971 72.0021 52.691C71.9481 52.7849 71.8774 52.862 71.7887 52.9199C71.7 52.979 71.5997 53.0214 71.4866 53.0484C71.3734 53.0754 71.259 53.0883 71.142 53.0883C70.9401 53.0883 70.7666 53.0574 70.6213 52.9957C70.476 52.934 70.3436 52.8183 70.2266 52.6511L70.539 52.4094H70.5377Z" fill="#009F4A"/>
<path d="M74.2357 51.006H73.7227V50.6743H74.2357V50.1459C74.2357 50.0019 74.2485 49.8694 74.2755 49.7511C74.3025 49.6316 74.3488 49.5287 74.4144 49.4413C74.4799 49.3539 74.5661 49.2857 74.6741 49.2369C74.7808 49.188 74.9145 49.1636 75.0714 49.1636C75.1215 49.1636 75.1755 49.1687 75.2321 49.179C75.2887 49.1893 75.3362 49.2047 75.3735 49.224L75.3182 49.5763C75.2244 49.5429 75.1357 49.5261 75.0521 49.5261C74.9518 49.5261 74.8721 49.5441 74.8155 49.5789C74.7577 49.6136 74.7152 49.6624 74.6869 49.7254C74.6587 49.7871 74.6419 49.8617 74.6368 49.9491C74.6317 50.0366 74.6291 50.1304 74.6291 50.2307V50.6743H75.2025V51.006H74.6291V53.0297H74.2369V51.006H74.2357Z" fill="#009F4A"/>
<path d="M75.4805 51.8511C75.4805 51.6659 75.5126 51.4988 75.5756 51.3471C75.6399 51.1953 75.7273 51.0655 75.8379 50.9562C75.9485 50.8469 76.0809 50.7621 76.2352 50.7016C76.3895 50.6412 76.5579 50.6104 76.7392 50.6104C76.9205 50.6104 77.0876 50.6412 77.2432 50.7016C77.3975 50.7621 77.5299 50.8469 77.6405 50.9562C77.751 51.0655 77.8385 51.1953 77.9028 51.3471C77.967 51.4975 77.9979 51.6659 77.9979 51.8511C77.9979 52.0362 77.9657 52.2034 77.9028 52.3538C77.8385 52.5055 77.7523 52.6353 77.6405 52.7446C77.5299 52.8539 77.3975 52.9388 77.2432 52.9992C77.0889 53.0596 76.9205 53.0905 76.7392 53.0905C76.5579 53.0905 76.3895 53.0596 76.2352 52.9992C76.0809 52.9388 75.9485 52.8539 75.8379 52.7446C75.7273 52.6353 75.6399 52.5055 75.5756 52.3538C75.5113 52.2034 75.4805 52.0349 75.4805 51.8511ZM75.9035 51.8511C75.9035 51.9745 75.9228 52.0902 75.9613 52.1956C75.9999 52.3011 76.0565 52.3936 76.1298 52.4721C76.203 52.5505 76.2918 52.6135 76.3946 52.6585C76.4975 52.7035 76.6119 52.7266 76.7392 52.7266C76.8665 52.7266 76.9822 52.7035 77.0838 52.6585C77.1853 52.6135 77.274 52.5505 77.3486 52.4721C77.4219 52.3936 77.4785 52.3011 77.517 52.1956C77.5556 52.0902 77.5749 51.9745 77.5749 51.8511C77.5749 51.7276 77.5556 51.6119 77.517 51.5065C77.4785 51.4011 77.4219 51.3085 77.3486 51.2301C77.2753 51.1516 77.1866 51.0886 77.0838 51.0436C76.9809 50.9986 76.8665 50.9755 76.7392 50.9755C76.6119 50.9755 76.4962 50.9986 76.3946 51.0436C76.2918 51.0886 76.2043 51.1516 76.1298 51.2301C76.0552 51.3085 75.9999 51.4011 75.9613 51.5065C75.9228 51.6119 75.9035 51.7276 75.9035 51.8511Z" fill="#009F4A"/>
<path d="M78.6065 51.2317C78.6065 51.1237 78.6027 51.0234 78.5962 50.9296C78.5898 50.8357 78.5859 50.7496 78.5859 50.6724H78.9588C78.9588 50.7367 78.9601 50.7997 78.9639 50.864C78.9678 50.9283 78.9691 50.9939 78.9691 51.0607H78.9794C79.0064 51.0041 79.0437 50.9489 79.0925 50.8949C79.1414 50.8409 79.1992 50.7933 79.2661 50.7509C79.3329 50.7084 79.4088 50.675 79.4924 50.6506C79.5759 50.6261 79.6672 50.6133 79.7649 50.6133C79.7919 50.6133 79.8189 50.6146 79.8459 50.6184C79.8729 50.6223 79.8999 50.6287 79.9269 50.639L79.9012 51.0363C79.8344 51.0157 79.7637 51.0054 79.6904 51.0054C79.4487 51.0054 79.2738 51.0839 79.1645 51.2394C79.0552 51.395 79.0012 51.6097 79.0012 51.881V53.0291H78.6091V51.2317H78.6065Z" fill="#009F4A"/>
<path d="M121.903 51.2825H82.9219V52.1957H121.903V51.2825Z" fill="#009F4A"/>
<path d="M45.5011 51.2825H6.51953V52.1957H45.5011V51.2825Z" fill="#009F4A"/>
<path d="M6.51953 5.6582H8.77853V22.6065H17.4957V24.7048H6.51953V5.6582Z" fill="#006DAD"/>
<path d="M28.8199 25.1903C27.367 25.1903 26.035 24.9383 24.8252 24.4369C23.6153 23.9355 22.5662 23.2399 21.6778 22.3515C20.7893 21.4643 20.0989 20.4062 19.6065 19.177C19.1128 17.9492 18.8672 16.6172 18.8672 15.1823C18.8672 13.7475 19.114 12.4167 19.6065 11.1876C20.0989 9.95974 20.7893 8.90032 21.6778 8.01317C22.5649 7.12603 23.6153 6.43046 24.8252 5.92774C26.0363 5.42632 27.367 5.17432 28.8199 5.17432C30.2728 5.17432 31.6048 5.42632 32.8146 5.92774C34.0258 6.43046 35.0736 7.12474 35.962 8.01317C36.8492 8.9016 37.5396 9.95974 38.0333 11.1876C38.5258 12.4167 38.7726 13.7475 38.7726 15.1823C38.7726 16.6172 38.5258 17.9492 38.0333 19.177C37.5396 20.4062 36.8492 21.4643 35.962 22.3515C35.0736 23.2399 34.0245 23.9342 32.8146 24.4369C31.6035 24.9383 30.2728 25.1903 28.8199 25.1903ZM28.8199 23.092C29.932 23.092 30.949 22.8863 31.8735 22.4736C32.7966 22.0609 33.5899 21.4965 34.2546 20.779C34.918 20.0616 35.4336 19.2233 35.8013 18.2629C36.169 17.3037 36.3529 16.2765 36.3529 15.1823C36.3529 14.0882 36.169 13.0622 35.8013 12.1017C35.4336 11.1426 34.918 10.3043 34.2546 9.58689C33.5912 8.86946 32.7966 8.30503 31.8735 7.89232C30.9503 7.4796 29.932 7.27389 28.8199 7.27389C27.7078 7.27389 26.6908 7.48089 25.7663 7.89232C24.8432 8.30503 24.0486 8.86946 23.3852 9.58689C22.7218 10.3043 22.2049 11.1426 21.8385 12.1017C21.4708 13.0609 21.2869 14.0882 21.2869 15.1823C21.2869 16.2765 21.4708 17.3037 21.8385 18.2629C22.2062 19.222 22.7218 20.0616 23.3852 20.779C24.0486 21.4965 24.8419 22.0609 25.7663 22.4736C26.6895 22.8863 27.7078 23.092 28.8199 23.092Z" fill="#006DAD"/>
<path d="M42.4102 5.6582H45.2619L56.292 21.4763H56.346V5.6582H58.605V24.7048H55.7533L44.7232 8.88663H44.6692V24.7048H42.4102V5.6582Z" fill="#006DAD"/>
<path d="M62.9883 5.6582H70.3053C70.9327 5.6582 71.5961 5.7302 72.2969 5.87292C72.9963 6.01692 73.6906 6.24577 74.3823 6.55949C75.0727 6.8732 75.7361 7.28206 76.3726 7.78349C77.009 8.2862 77.5696 8.89049 78.0543 9.59892C78.539 10.3073 78.9234 11.1238 79.2114 12.0469C79.4981 12.9713 79.6421 14.0153 79.6421 15.1815C79.6421 16.3476 79.4981 17.3916 79.2114 18.3161C78.9247 19.2405 78.539 20.0556 78.0543 20.7641C77.5696 21.4725 77.009 22.0781 76.3726 22.5795C75.7361 23.0822 75.0714 23.4898 74.3823 23.8035C73.6919 24.1172 72.9963 24.3461 72.2969 24.4901C71.5974 24.6341 70.9327 24.7048 70.3053 24.7048H62.9883V5.6582ZM65.2486 22.6065H69.5531C70.6473 22.6065 71.6604 22.4625 72.5926 22.1758C73.5247 21.8891 74.3321 21.4455 75.0136 20.8438C75.695 20.2433 76.2324 19.4758 76.6271 18.5436C77.0218 17.6115 77.2186 16.4903 77.2186 15.1815C77.2186 13.8726 77.0206 12.7515 76.6271 11.8193C76.2324 10.8872 75.6937 10.1209 75.0136 9.5192C74.3321 8.91878 73.5247 8.4752 72.5926 8.1872C71.6591 7.90049 70.646 7.75649 69.5531 7.75649H65.2486V22.6065Z" fill="#006DAD"/>
<path d="M92.1207 25.1903C90.6678 25.1903 89.3358 24.9383 88.126 24.4369C86.9148 23.9355 85.8657 23.2399 84.9785 22.3515C84.0914 21.4643 83.3997 20.4062 82.9073 19.177C82.4135 17.9492 82.168 16.6172 82.168 15.1823C82.168 13.7475 82.4148 12.4167 82.9073 11.1876C83.3997 9.95974 84.0914 8.90032 84.9785 8.01317C85.8657 7.12603 86.9161 6.43046 88.126 5.92774C89.3371 5.42632 90.6678 5.17432 92.1207 5.17432C93.5735 5.17432 94.9043 5.42632 96.1154 5.92774C97.3265 6.43046 98.3757 7.12474 99.2628 8.01317C100.15 8.9016 100.84 9.95974 101.334 11.1876C101.827 12.4167 102.073 13.7475 102.073 15.1823C102.073 16.6172 101.827 17.9492 101.334 19.177C100.84 20.4062 100.15 21.4643 99.2628 22.3515C98.3757 23.2399 97.3253 23.9342 96.1154 24.4369C94.9043 24.9383 93.5735 25.1903 92.1207 25.1903ZM92.1207 23.092C93.2328 23.092 94.2498 22.8863 95.1743 22.4736C96.0974 22.0609 96.8907 21.4965 97.5554 20.779C98.2188 20.0616 98.7344 19.2233 99.1021 18.2629C99.4698 17.3037 99.6537 16.2765 99.6537 15.1823C99.6537 14.0882 99.4698 13.0622 99.1021 12.1017C98.7344 11.1426 98.2188 10.3043 97.5554 9.58689C96.892 8.86946 96.0974 8.30503 95.1743 7.89232C94.2498 7.4796 93.2328 7.27389 92.1207 7.27389C91.0085 7.27389 89.9903 7.48089 89.0671 7.89232C88.1427 8.30503 87.3494 8.86946 86.686 9.58689C86.0225 10.3043 85.507 11.1426 85.1393 12.1017C84.7715 13.0609 84.5877 14.0882 84.5877 15.1823C84.5877 16.2765 84.7715 17.3037 85.1393 18.2629C85.507 19.222 86.0225 20.0616 86.686 20.779C87.3494 21.4965 88.1427 22.0609 89.0671 22.4736C89.9903 22.8863 91.0085 23.092 92.1207 23.092Z" fill="#006DAD"/>
<path d="M105.707 5.6582H108.559L119.589 21.4763H119.643V5.6582H121.903V24.7048H119.051L108.021 8.88663H107.967V24.7048H105.707V5.6582Z" fill="#006DAD"/>
<path d="M23.3086 29.4529H26.1076V45.1785H23.3086V29.4529Z" fill="#006DAD"/>
<path d="M37.262 32.8283C36.965 32.3988 36.569 32.0838 36.074 31.8845C35.5777 31.6853 35.0557 31.585 34.508 31.585C34.1827 31.585 33.8677 31.6223 33.5643 31.6955C33.2609 31.7701 32.987 31.8884 32.7427 32.0517C32.4984 32.215 32.3017 32.4258 32.1539 32.6843C32.006 32.944 31.9314 33.25 31.9314 33.6061C31.9314 34.1397 32.1166 34.5473 32.4869 34.8275C32.8571 35.1091 33.3161 35.3534 33.8639 35.5604C34.4116 35.7674 35.0107 35.968 35.6626 36.1595C36.3131 36.3524 36.9136 36.6185 37.4613 36.9593C38.009 37.3 38.468 37.7513 38.8383 38.3144C39.2086 38.8775 39.3937 39.6245 39.3937 40.558C39.3937 41.4014 39.2381 42.1394 38.927 42.7681C38.6159 43.3981 38.198 43.9201 37.6721 44.3341C37.1463 44.7494 36.5356 45.0593 35.84 45.2675C35.1431 45.4745 34.4103 45.5787 33.6414 45.5787C32.6643 45.5787 31.7231 45.4154 30.8206 45.0901C29.9167 44.7648 29.1401 44.2171 28.4883 43.447L30.5981 41.404C30.9389 41.9221 31.3863 42.3258 31.9417 42.6138C32.4971 42.9031 33.086 43.0471 33.707 43.0471C34.0323 43.0471 34.3589 43.0021 34.6841 42.9134C35.0094 42.8247 35.3064 42.691 35.5726 42.5135C35.8387 42.3361 36.0534 42.1098 36.2167 41.836C36.38 41.5621 36.461 41.2471 36.461 40.8923C36.461 40.315 36.2759 39.8701 35.9056 39.559C35.5353 39.2478 35.0763 38.9855 34.5286 38.7708C33.9809 38.5561 33.3804 38.353 32.7299 38.1601C32.078 37.9673 31.4776 37.705 30.9311 37.372C30.3834 37.039 29.9244 36.5941 29.5541 36.04C29.1839 35.4845 28.9987 34.7401 28.9987 33.808C28.9987 32.9941 29.1646 32.2908 29.4989 31.6981C29.8319 31.1067 30.2677 30.6143 30.809 30.2208C31.349 29.8287 31.9674 29.5355 32.663 29.344C33.3586 29.1511 34.0696 29.0547 34.7947 29.0547C35.624 29.0547 36.4276 29.1807 37.2041 29.4327C37.982 29.6847 38.6814 30.0987 39.3037 30.676L37.2607 32.8308L37.262 32.8283Z" fill="#006DAD"/>
<path d="M47.3869 29.4529H49.8079L56.5823 45.1785H53.3847L51.919 41.581H45.1009L43.6789 45.1785H40.5469L47.3882 29.4529H47.3869ZM50.9406 39.1806L48.5196 32.7842L46.0549 39.1806H50.9406Z" fill="#006DAD"/>
<path d="M58.3359 29.4529H64.4662C65.0589 29.4529 65.6439 29.5236 66.2212 29.6637C66.7985 29.8052 67.3128 30.034 67.7654 30.3529C68.2167 30.6717 68.5831 31.0819 68.8647 31.5859C69.1449 32.0899 69.2864 32.6967 69.2864 33.4077C69.2864 34.2962 69.0344 35.029 68.5317 35.6063C68.0277 36.1836 67.3694 36.5989 66.5555 36.8496V36.8946C67.0441 36.9537 67.4992 37.0913 67.9209 37.306C68.3427 37.5207 68.7014 37.7946 68.9984 38.1276C69.2941 38.4606 69.5281 38.8463 69.6978 39.2822C69.8675 39.7193 69.9537 40.1899 69.9537 40.6926C69.9537 41.5515 69.7839 42.2663 69.4432 42.8359C69.1025 43.4067 68.6551 43.8657 68.0996 44.2129C67.5442 44.5613 66.9078 44.8095 66.1891 44.9573C65.4704 45.1052 64.7414 45.1797 64.0008 45.1797H58.3372V29.4542L58.3359 29.4529ZM61.1349 35.8493H63.6897C64.6231 35.8493 65.3225 35.668 65.7892 35.3055C66.2559 34.9429 66.4887 34.4646 66.4887 33.8732C66.4887 33.1917 66.2482 32.6852 65.7674 32.3522C65.2865 32.0192 64.5125 31.852 63.4467 31.852H61.1362V35.8493H61.1349ZM61.1349 42.778H63.7115C64.0677 42.778 64.4482 42.7562 64.8558 42.7112C65.2634 42.6662 65.6362 42.5633 65.9769 42.4C66.3176 42.2367 66.5992 42.004 66.8204 41.7006C67.0428 41.3972 67.1534 40.987 67.1534 40.4676C67.1534 39.6383 66.8834 39.061 66.3421 38.7345C65.8008 38.4092 64.9612 38.2459 63.8208 38.2459H61.1336V42.7767L61.1349 42.778Z" fill="#006DAD"/>
<path d="M72.6602 29.4529H75.4592V45.1785H72.6602V29.4529Z" fill="#006DAD"/>
<path d="M78.9062 29.4532H81.704V42.6459H88.3897V45.1775H78.9062V29.4519V29.4532Z" fill="#006DAD"/>
<path d="M90.3633 29.4529H93.1623V45.1785H90.3633V29.4529Z" fill="#006DAD"/>
<path d="M99.828 31.9845H95.0078V29.4529H107.446V31.9845H102.626V45.1772H99.8267V31.9845H99.828Z" fill="#006DAD"/>
<path d="M113.197 38.4477L107.289 29.4529H110.798L114.663 35.7156L118.571 29.4529H121.902L115.995 38.4477V45.1772H113.196V38.4477H113.197Z" fill="#006DAD"/>
<path d="M20.0465 33.8388C19.603 32.8539 19.0102 32.0362 18.2697 31.3843C17.5291 30.7325 16.678 30.2478 15.715 29.9289C14.752 29.6113 13.753 29.4519 12.7167 29.4519H6.51953V41.0503H9.31853V31.9848H11.8732C12.7321 31.9848 13.5202 32.085 14.239 32.2843C14.9564 32.4836 15.5787 32.7948 16.1045 33.2178C16.6304 33.6395 17.0405 34.191 17.3375 34.8725C17.6332 35.5539 17.7824 36.3678 17.7824 37.3153C17.7824 38.2629 17.6152 39.096 17.2822 39.7698C16.9492 40.4435 16.4941 40.9912 15.9155 41.4129C15.3382 41.8346 14.6607 42.1458 13.8828 42.3463C13.1062 42.5456 12.2795 42.6459 11.4065 42.6459H9.31853V42.6382H6.51953V45.1775H12.3837C13.3312 45.1775 14.2968 45.018 15.2817 44.7005C16.2665 44.3816 17.1627 43.9008 17.9688 43.2566C18.7762 42.6125 19.4345 41.7986 19.945 40.8138C20.4554 39.8289 20.7112 38.6628 20.7112 37.3153C20.7112 35.9679 20.4888 34.8236 20.0452 33.8388H20.0465Z" fill="#006DAD"/>
</svg>
